<svg data-name="Layer 1" xmlns="http://www.w3.org/2000/svg" viewBox="0 0 671.13 608.01"><path d="M500.32 420.16c2.25 2.82 5.56 5.24 6.11 8.17.51 2.75-1.91 6.05-3.18 9.51 5.15.52 10.34 2.19 12.69 7.81 2.44 5.84-.08 10.27-5.73 13.91 3.62 2.74 6.76 5.06 9.84 7.44 4 3.07 7.25 6.63 7.9 11.92.08.66.37 1.41.15 2-2.23 5.81 1.8 8.54 5.42 11.73 10.56 9.27 21 18.7 33.51 25.38 15.38 8.18 31.74 10.32 48.93 9.24a188 188 0 0 1 30.48.22c9.86 1 15.49 7.74 17.87 17.33.45 1.8 1.82 4.07 3.37 4.73 3 1.27 3.54 3.33 3.44 6-.22 5.79-3.44 10-7.75 13.3a69.62 69.62 0 0 1-27.1 12.81c-5.93 1.4-12.29 1.44-17.91 3.56-11.3 4.25-23.1 4.28-34.76 5.47-20.31 2.07-40.62 4.25-61 5.47-18.86 1.14-37.69.16-55.72-6.45-4.1-1.51-7.94-3.68-12-5.16a9.78 9.78 0 0 0-5.89-.38c-6.55 2.11-12.91 4.77-19.43 7-8.47 2.87-17.27 2.3-26 2-13.11-.36-26.27 0-39.12-3.38-1-.27-2-.63-3.06-.86-5.39-1.19-8.17-4.31-10-9.79-5.54-16.42-11.74-32.63-18.09-48.76-1.82-4.62-4.91-8.76-7.63-13-2.26-3.51-3.78-3.35-5.9.31-1.26 2.18-2.54 4.36-3.6 6.64-1.37 2.94-3.61 2.45-6.06 2s-3-2.19-3-4.38c0-4-.1-8-.11-11.94 0-2.57-.83-3.27-3.41-2.22a63.73 63.73 0 0 1-10.58 3.28 5.09 5.09 0 0 1-4.35-1.47c-.63-.93-.1-3.23.68-4.41a37.43 37.43 0 0 1 5.25-5.95c2.52-2.48 2.26-4.86.14-7.34-.69-.81-1.67-1.5-2-2.43-.49-1.33-1.22-3.38-.61-4.12a6.18 6.18 0 0 1 4.48-2.09c2.31.12 4.58 1.21 6.85 1.91 3.31 1 4.49.17 4.09-3.3-.26-2.36-1.09-4.66-1.34-7-.15-1.34 0-3.69.62-3.92 1.42-.54 3.63-.63 4.79.17 2 1.4 3.56 3.6 5.51 5.68.51-.72 1.2-1.25 1.14-1.69-.64-4.83 2.08-8.37 4.64-11.87 1.73-2.35 1.67-4.3.46-6.91-2.38-5.1-2.92-10.2 1.91-14.53a3.32 3.32 0 0 0 1-2.67c-2.8-10.52-1.84-21.15-.55-31.64a155.36 155.36 0 0 0-3.58-58 166.08 166.08 0 0 1-4.51-33.79 288.33 288.33 0 0 0-10-63.45c-3.68-13.62-5.6-27.79-7.25-41.84-2.44-20.76-7.71-40.86-12.28-61.16-3.35-14.83-5.3-30-7.86-45a5.18 5.18 0 0 1 2.41-5.75c21.61-14.79 39.12-34.09 57.44-52.5q11.5-11.55 23.38-22.72c6.44-6 13.76-10.77 22.38-13.24a6.34 6.34 0 0 0 2.9-1.91 22.4 22.4 0 0 1 27.36-5.74c3 1.43 6.7 1.39 10 2.15 14.24 3.22 26.27 10.35 36.49 20.68 6.62 6.69 13.12 13.51 19.92 20 8.05 7.69 16.83 14.23 28.5 15.31a18.76 18.76 0 0 1 3.47.87c3.41 1 5 2.84 4.84 6.89q-.79 27.42-.86 54.87a241.79 241.79 0 0 1-8.73 63.23c-5.36 19.5-7.85 39.47-9.07 59.66-1.4 23.29-3.92 46.52-4.92 69.83-.88 20.63-.62 41.33-.31 62a45.89 45.89 0 0 0 7.43 24.45 29.12 29.12 0 0 1 2 3.88c2.66 5.9 1.95 8.64-3.22 12.7-.42.39-.87.84-1.32 1.25zM346 80.36c-5.58 6.54-7.17 14.24-6.65 22.59a55.32 55.32 0 0 1-.08 6.69c-.76 13-1.53 25.89-2.4 38.82a12.19 12.19 0 0 1-1.27 3.94c-1.79 4.07-3.66 8.11-5.53 12.15a44.72 44.72 0 0 1-3.28 6.7c-2.74 4-5.88 7.78-8.7 11.76-3.2 4.51-4 9.15-.29 13.88 2 2.6 4.06 5.21 5.84 8 .7 1.1 1.35 2.87.95 3.93-3.41 9-4.24 18.42-4.3 27.78-.05 8.52 1.38 17.06 2.36 25.58.38 3.25 1.42 6.43 2 9.67 1.34 7.66 2.54 15.34 3.87 23a7.36 7.36 0 0 0 1.25 2.9c2.49 3.48 5.07 6.88 8.28 11.2l-13.12 2.16c3.19 5.73 6.2 11.73 9.79 17.35 2.52 3.95 6.88 4.11 10.11 1a12.44 12.44 0 0 1 11-3.41c4.52.78 8.88 2.49 13.36 3.59a99.81 99.81 0 0 0 11.57 2.28c2.37.3 3.91-.93 2.8-3.68-3.77-9.38-9.08-17.88-17.26-23.85-15.19-11.09-21.88-26.13-23.6-44.43-.77-8.19-3.71-16.18-5.81-24.23a75.64 75.64 0 0 0-2.86-7.46c3.74.52 5.73 1.75 7.37 4.39 4.28 6.82 8.2 14 13.52 20 14.6 16.35 41.83 3.26 46.14-10.82a16.93 16.93 0 0 0-1.52-14c-6.69 16.09-25.25 13.29-32.78 2.3a42.79 42.79 0 0 1-2.9-4.27 81 81 0 0 1-8-55.5 18.06 18.06 0 0 1 1.4-3.29l1.07-.26c4.2 11.26 13.58 17.47 22.61 23.89 14 10 29.37 13.48 45.27 5.39 8.4-4.28 15.78-10.59 23.47-16.17 6.32-4.59 12.31-9.62 18.66-14.16 3.76-2.68 4.33-2.29 5.74 2a27.31 27.31 0 0 1 .76 2.68 80.74 80.74 0 0 1-5.26 51.7c-4.19 9.39-10.18 17.42-20.18 21.49-15.42 6.26-26-.75-26.07-17.21 0-1-.21-1.93-.42-3.77a31.29 31.29 0 0 0-3.84 3.06c-7.61 8.63-7.37 18.37-3.44 28.32 5.27 13.38 16.21 17.72 29.27 11.77 4.21-1.92 8.16-4.38 12.31-6.44 2.89-1.44 5.9-2.61 8.72-3.84.56.8.81 1 .84 1.23a21 21 0 0 1 .19 2.37c.27 12.88-4.4 23.9-13.13 33.12-6.36 6.71-12.78 13.47-19.9 19.32-5.54 4.55-8.68 10.21-11.16 16.51-6.12 15.52-2.84 26.66 10.63 36.48 2.57 1.88 5.17 3.72 7.82 5.48a20.22 20.22 0 0 0 3.14 1.37c-5.75 6-12 5.94-18.69 6.76 5.55 6.09 6.67 13 7.2 20 .28 3.83.53 7.68.63 11.52a33.4 33.4 0 0 0 7.07 20.27c2.32 3 4 6.45 5.88 9.62-3.53 2.77-3.65 5.12-.94 9.4a43.5 43.5 0 0 1-11.27 58.73c-.74.54-1.44 1.15-2.16 1.73l.32.43 6.25-2.61c-1.17 4.32-3.4 6.4-6.33 7.15-1 .26-2.62-1.75-4.57-3.18-3 .76-7 1.19-10.55 2.83-5.78 2.71-11.07 6.44-16.79 9.28-3.86 1.92-8.06 4.14-12.19 4.31-10.28.41-20.61-.13-30.9-.6-5.2-.23-5.88.12-3.66 5 2.83 6.26 6.56 12.12 9.25 18.44 2 4.64 5.22 6.45 9.79 6.63 8.6.35 17.29 1.46 25.8.66 18.72-1.76 35.68 2.51 51.72 12a120.91 120.91 0 0 0 17.32 7.9c3.29 1.3 7.42.93 10.28 2.72 3.91 2.45 7.91 2.67 12.11 3l7.53.52c25.17 1.69 50.26.88 74.54-6.25 28.2-8.28 56-17.79 84-26.75 2.13-.68 2.89-1.82 2.42-4.15-1.36-6.78-5-11.75-11.48-14.15-7.45-2.77-15-3.06-22.38.63-3.77 1.89-7.34 4.16-11.65.52-1.48-1.24-4.3-1.22-6.5-1.22-18.53 0-36.79-1.19-53.78-9.69-6.6-3.31-14.39-5.15-19.75-9.83-9.54-8.32-19.41-10-30.89-6.25a47.3 47.3 0 0 1-5.06.93c1.27-1.91 1.66-2.89 2.37-3.49 6.61-5.69 12.71-12.09 21.15-15.26 2.71-1 2.49-2.83.25-3.87-2.89-1.35-6.07-2.87-9.13-2.87-4.85 0-9.69 1.26-14.55 1.82-1 .11-2.67-.24-3-.9s.17-2.19.59-3.21a22.56 22.56 0 0 1 2-3.07c-6.59-2.22-10.07 4.78-16.56 4.46 7.75-10.46 17.42-18.34 23.79-30.11-5.06 1.51-9.43.94-12.35 5.37-1.81 2.77-5.12 4.56-7.75 6.78l-1.08-.83a35.42 35.42 0 0 1 .84-3.56c.68-2 2.08-3.95 2.14-5.95.22-7.08 4.56-12.24 7.64-18 .6-1.12 1.25-3 .74-3.71-.66-.86-2.46-.91-3.8-1.17-2.15-.43-4.33-.74-6.5-1.1a35.49 35.49 0 0 1 3.16-5.51c1.33-1.61 3.2-2.76 4.8-4.16a56.54 56.54 0 0 0 5-4.56c3.28-3.65 3.34-6.75.49-10.74-.82-1.15-1.62-2.31-2.95-4.24l-6.67 12.48.12-.12c-1.17 1.23-2.44 2.39-3.5 3.71-8.66 10.78-19.11 19.07-32.36 23.49a23.26 23.26 0 0 1-3.37.59c2.2-2.5 4.7-4 6.87-5.83 3.79-3.24 3.74-3.87-.27-6.59-10.84-7.37-16.7-24.41-2.11-36.56 3.05-2.55 5.93-5.37 9.22-7.55 14.72-9.73 13.16-25 13.76-39.59a7.45 7.45 0 0 0-1.23-3.74c-1.7-2.89-4-5-8.22-5.28 1.36 2.95 2.78 5.1 3.32 7.45a23.26 23.26 0 0 1 .25 7.5c-.87 8.12-7.27 14.59-14.88 15.32-8.5.82-15.19-3.62-17.78-12.07-2-6.51-1.57-13.13 0-19.66 3-12.6 10.5-22 20.51-29.82a70.52 70.52 0 0 0 7.1-6.28c3.81-3.85 7.39-7.94 11.18-11.81 3.94-4 7.28-8.3 8.91-13.88 1.9-6.47 4.32-12.79 6.32-19.24 1.36-4.38 3.19-8.83 3.4-13.31.59-12.06 1.55-24 4.11-35.84s3.53-23.91 6.53-35.54a104.91 104.91 0 0 0 3.52-27.06c0-2.44-.7-3.71-3.22-4-14.14-1.63-23.55-10.1-30.69-21.63-3.76-6.08-7.46-12.23-10.73-18.59-2.68-5.2-6.27-7.07-12.17-6.41C442 91 432.3 82.65 431.23 72.66c-.42-3.83.68-7.12 3.89-9.43s6.92-3 10.5-1.06c2.51 1.36 5.21 3 6.86 5.24a99.34 99.34 0 0 1 9.67 15.39c5.48 11.35 10.52 22.89 18.63 32.73 5.85 7.11 12.77 12.89 21.71 15.43 12.38 3.51 10 4.4 11.61-7.85.29-2.33-.48-3-2.77-3.07a45.2 45.2 0 0 1-9.46-.73c-9.53-2.15-15.54-8.87-20.07-16.91-3.76-6.68-6.88-13.72-10.27-20.62C467.72 74 463.87 66.3 457 60.64c-10.69-8.87-25.83-7.81-34.56 2.67a18.59 18.59 0 0 0-3.62 18.26c2 6.31 7.48 7.66 13.18 8.52a80.47 80.47 0 0 1 10.18 1.75c15 4.33 23.25 27.22 14.72 40.3a15.8 15.8 0 0 1-2.28 2.75 12.13 12.13 0 0 1-16 .43c-4.58-3.68-5.38-9-2.22-14.61a21.53 21.53 0 0 0 1-2.44c-4.13-1.1-5.51-.44-7 3.12-3.38 7.93-1 17 6.87 24.37 2.49 2.33 2.53 4 .83 6.71-9.53 15.18-36.82 19.38-50.71 7.72-3.57-3-6.16-6.17-3.95-11.27.65-1.51.57-3.38.69-5.09.49-7.05-.87-13.49-6.33-18.49a6.49 6.49 0 0 0-9.62.55c2.52 2.43 5.86 4.35 7.21 7.22 3.23 6.85-3.38 17-11 17.26a9.37 9.37 0 0 1-6.19-2.37c-8.07-8-9.74-17.88-6.64-28.31 2.52-8.47 6.5-16.5 9.36-24.89a149 149 0 0 0 5.2-19.47c.81-4.15-.53-5.24-4.85-5-7.11.32-12.25 3.79-15.39 10.19zm20.87 380.05c-2 .76-3.58 1.31-5.13 2-5 2.12-10.18 3.85-14.83 6.54-5.34 3.09-6.13 7.77-3.37 13.22 1.07 2.12 1.56 4.55 2.8 6.55.91 1.48 2.5 3.39 4 3.54 7.08.75 14.22 1.06 21.35 1.34s14 .07 21 .57a15.49 15.49 0 0 1 12.08 6.76 4.87 4.87 0 0 0 4.18 1.34 20.12 20.12 0 0 0 14.84-12.64c2.72-7.13 4.43-14.66 6.45-22 1.09-4 1.9-8.07 2.88-12.33-6.35 1.29-6 1.28-6.24-4.86-.18-4.27-.41-9.23-2.6-12.58-6-9.13-12.94-17.62-19.63-26.26-2.57-3.32-5.46-6.4-8.27-9.53a45.09 45.09 0 0 0-3.49-3.09c-7.89 20.49-12.11 42.02-27.82 58.21.45.81.93 1.72 1.77 3.22zm8-90-.23 1.39c2.83.83 5.75 2.57 8.47 2.3 5.63-.57 8.58 2.57 11.38 6.37 2.11 2.88 4 5.91 6.07 8.84.55.77 1.25 1.43 2.39 2.72 2.68-8.37 5.12-16 7.59-23.69 7.43 3.89 14.86 5.43 23 3.39-2-2.18-4.45-3.38-6.51-5.06-2.62-2.12-5.79-4.22-7.14-7.08a47 47 0 0 1-3.7-13.67c-1.66-12 .52-23.73 8.27-33 7.16-8.53 15.87-15.88 24.51-23 5-4.15 6.76-9.64 9.3-15.07a3.19 3.19 0 0 0-2.4.92c-6.71 8.75-16.08 11-26.43 10.88-2.31 0-5.54-1.07-6.67.05-1.31 1.29-.76 4.46-1 6.82a12.6 12.6 0 0 1-10.49 10.81 11.22 11.22 0 0 1-12.54-7.58c-1.16-3.46-1.37-7.24-2-10.87-.17-1.07-.24-2.16-.5-4.52-11.55 11.7-24.09 12.41-37.75 6.6a11.6 11.6 0 0 0 2.55 3.55c6.21 5.57 12.75 10.8 18.65 16.69 5.3 5.3 10.84 10.74 14.65 17.09 10.12 16.83 4.57 35.21-12.08 42.51-2.45 1.06-4.98 1.75-7.44 2.6zM365.92 335c-1.46-4.66-4.77-6-8.59-6.32-3.57-.31-7.2-.67-8.83 3.94-1.14 3.23-3 6.21-4.32 9.37-4.41 10.28-4.18 19.78 4.58 28a21.14 21.14 0 0 1 6.76 18.71c-.52 4.46-1.06 8.94-1.94 13.34a29.43 29.43 0 0 1-11.45 18.45 47.23 47.23 0 0 0-9.08 8.78c-1.31 1.72-1.63 4.69-1.37 7 .3 2.64 1.93 4 5.13 2.48 9-4.28 16.46-10.5 21.41-19 6.94-11.86 13-24.25 19.35-36.43.77-1.47 1.41-3 2.2-4.73-1.09-.43-1.78-.78-2.5-1-12.1-3.34-20.08-11.65-25.42-22.37-4.5-9 1.6-18.67 11.58-19.6a20.79 20.79 0 0 0 2.49-.62zM510.24 72.52l3.49-2.72c-.8-1-1.41-2.46-2.42-2.84-13.49-4.91-24.52-13.51-35-23-7.83-7.14-15.54-14.42-23.46-21.46-9.77-8.73-21.4-13.5-34.31-15.31-5.89-.83-6.91-.4-8.74 5.29a91.39 91.39 0 0 0-2.66 12c-.5 2.82.6 4.07 3.81 3.7a55.46 55.46 0 0 1 39.8 10.49C461 46.05 471 53.94 481.16 61.47c8.26 6.11 17.59 9.6 29.08 11.05zm-115.77 41.7 1.3-.73c2.37-1 4.66-2.36 7.14-2.95 2.65-.63 3-1.7 2.38-4.19-4.87-19.67-6.37-39.67-5.51-59.89a163.35 163.35 0 0 1 6.29-39.9c1-3.33 0-4.33-3.21-3.38-3.59 1.06-6.37 2.89-7.24 7-1.31 6.22-3.15 12.32-4.38 18.55C387 50.41 384.93 72.25 389 94.2c1.21 6.8 3.6 13.36 5.47 20.02zM384.8 16.1l-1.32-.7c-1 .78-2.08 1.49-3 2.35-13.13 12.15-26.39 24.16-39.3 36.54-16.18 15.54-32.35 31.07-51.93 42.39-3.92 2.27-7.37 4.11-4.11 9.33.38.61.21 1.56.33 2.34.68 4.4 2.92 5.36 6.56 2.62a118.17 118.17 0 0 0 10.85-8.68q28-26.52 55.7-53.27c.14-.14.07-.5.11-.75l-4.14-1.52 9.08-5.21.62.78c-.25.77-.5 1.55-.92 2.88 3.65-2.51 6.61-5.06 10-6.75 5.51-2.74 8.76-6.59 9.22-12.94.23-3.17 1.45-6.27 2.25-9.41zm60.29 196.58c-3.09-.2-5.52-.34-7.94-.53-2.66-.2-3.73.66-2.79 3.5a30.16 30.16 0 0 1 1.72 7.3c.25 3.74 2.46 4.87 5.63 5.44 8.89 1.6 15.13-2.86 20-9.33 6.72-8.91 8.94-19.25 7.95-30.31-.34-3.89-8-8.47-11.13-6.53-3.48 2.16-6.91 4.42-10.21 6.82-5.28 3.84-10.44 7.84-16.19 12.17 5.16 3.34 10.46 5.23 12.96 11.47zM374.14 525c3.82-.37 7.84-.11 11.41-1.26a52.2 52.2 0 0 0 13.76-6.52c3.74-2.61 3.86-7.11 1.71-11.56-2.82-5.84-4.66-7-10.21-6.39-2.64.29-5.26.68-7.9 1-15.6 1.73-31.17 2.93-46.39-2.47-2.17-.77-2.93.29-3 2.26-.18 3.44-.31 6.88-.58 10.31-.2 2.66 1.1 3.71 3.53 4.35a102.22 102.22 0 0 1 9.74 3.28c9.01 3.35 17.95 7.15 27.93 7zm117-222c-7.86 10.58-19.39 14.17-28.76 20.91a44.58 44.58 0 0 0-5.22 4.27c-5.61 5.49-6.05 10.67-1.4 17 .77 1.05 2.15 1.66 3.24 2.47.93-1.35 2.61-2.69 2.64-4.07a38.69 38.69 0 0 0-1.12-9.38c-.62-2.71.23-4 2.8-4.57 9.87-2.17 17.13 5.08 18.92 14.27 1.18 6.05 1 12.42.87 18.63-.07 4.73-.13 9.75-1.69 14.1-2.39 6.65-6 12.86-9.22 19.21-1.17 2.32-.89 3.78 1.8 4.4 2.45.55 4.89 1.17 7.36 1.65 5.87 1.13 6.68.3 9.89-4.92 1.12-1.82 1.11-4.65.86-6.94-.53-4.73-1.84-9.37-2.31-14.1a150 150 0 0 1-.9-18.1c.16-6.95 2.6-14.1-1.31-20.62a154.73 154.73 0 0 0-10.22-14.47c-.79-1-2.61-1.27-4-1.87l1.2-2.36a88.23 88.23 0 0 1 8.66-3.19c4.25-1.11 8.13-6.19 7.95-12.32zM465.31 61.13c-.13-.39-.11 0 .11.28 8.49 9.27 13.6 20.44 18.2 31.92 2.71 6.79 5.55 13.63 11.59 18.2a17.35 17.35 0 0 0 7.83 3.19c4 .53 4.79-1.07 3.79-5a64.23 64.23 0 0 1-2.18-12 100.08 100.08 0 0 1 .5-14.68c.35-3.84-1.25-5.8-4.65-7.19C488.66 71 476.9 66 465.31 61.13zm-95 34.43c-1.52 1-2.88 1.54-3.53 2.5-3.16 4.68-7 9.15-9 14.3-3.84 9.89-4.67 20.16.76 30 2 3.66 5.64 4.26 9 1.79 3.68-2.7 4.13-10.36.52-13.11-.92-.7-2.87-.37-4.24-.05-1.2.28-2.26 1.2-4.29 2.36a28.37 28.37 0 0 1 1.06-3.72 17.08 17.08 0 0 1 12.91-9.55c3.13-.56 3.41-1.76 1.74-4.27a15 15 0 0 1-2.1-5c-1.01-4.81-1.78-9.58-2.82-15.25zm18.36 466.71-.54 1.43c2.92 2.37 5.74 4.87 8.79 7 3.53 2.54 7.36 4.66 10.86 7.25a5.16 5.16 0 0 1 2 3.81c-.07.84-2.06 2.05-3.29 2.19-5.09.59-10.22.85-15.34 1.19-2.31.15-4.63.2-6.95.29l-.15 1.72c2 .5 4.08 1.45 6.11 1.42 5-.08 10-.57 15-.94 2.36-.17 4.8-.92 7.06-.55 3.15.51 3.62-.71 3.56-3.36q-.21-10.51-.12-21c0-2.73-1.6-2.52-3.44-2.37-6.07.49-12.14.92-18.21 1.4-1.77.16-3.55.35-5.33.52zM391 136.59c-.53.64-.8.82-.84 1-.5 2.87-.94 5.74-1.46 8.6-1 5.61-.34 6.9 5.31 7.91 8.94 1.59 16.57-1.9 23.84-6.59 3.29-2.13 5.21-4.61 4-8.85-.54-1.85-.11-4-.43-5.91a11.41 11.41 0 0 0-1.56-3.07c-.66.85-1.71 1.62-1.91 2.56-1.07 5-4.38 7.62-9.1 8.85-6.71 1.79-12.46-.43-17.85-4.5zm55.65 138c-18.72 5.55-28.8-5.47-37.34-19.52-3.62 7.25-6.92 13.86-10.4 20.81 1.32 0 2.36-.06 3.39 0 4 .28 4.87 1.77 3.18 5.44-.61 1.32-1.69 2.58-1.81 3.93-.1 1.18.83 2.46 1.31 3.69 1.07-.62 2.81-1 3.1-1.92a66.28 66.28 0 0 0 1.69-8.11c.4-1.95.85-3.89 1.31-6 19.27 8.09 30.63 8.67 35.56 1.68zm.12-152.84c3.71-6.87 2-17.09-3.44-21.22-1.58-1.21-3.79-1.67-5.76-2.3-2.41-.77-4.91-1.3-7.33-2-1.13-.35-2.15-1.23-3.27-1.35-1.36-.15-3.27-.21-4 .57s-.72 2.79-.29 4c1.66 4.6 3.49 9.15 5.58 13.57a4.14 4.14 0 0 0 3.45 1.84c6.48-1.31 11.86-.34 15.05 6.89zm-26.34-61.37.65.86c10.09-10.93 21.9-13.43 35.36-7.66 0-.57.05-.93-.08-1C449.2 46 441.73 39.9 432.6 36.34c-1-.39-3.48.65-3.93 1.64-2.47 5.39-4.57 10.94-6.66 16.49a55.85 55.85 0 0 0-1.58 5.91zm-10.36 170.41L423 215.17a20.72 20.72 0 0 0-3.5 0 19.69 19.69 0 0 1-13.77-2 31.22 31.22 0 0 0-12-3.4c-4.54-.34-9.18.79-13.51-1.49-.08 0-.37.32-.85.75a18.36 18.36 0 0 0 12.32 8.26c3.12.56 6.33.68 9.45 1.25 5.06.92 7 3.1 7.86 8.12.24 1.34.68 2.61 1.07 4.13zm-11.74-102.88c.33 1.2.65 2.3.94 3.4a36.3 36.3 0 0 1 1 3.83c.56 3.92 2.19 5.4 5.56 3.58a17.06 17.06 0 0 0 6.81-7c1.68-3.36-.86-5.8-4.69-5.25-3.01.41-5.95.88-9.62 1.44zM490 332.15l1.52-.37c0-2.44.06-4.89 0-7.32 0-1.15-.08-3.12-.6-3.3-3-1-6.2-1.64-9.32-2.4-.14.29-.28.58-.41.87zm-120.13 13.3c-5-5.37-11.83-6.63-13.48-1.67 4.9 4.16 6.81 4.42 13.46 1.67zM618 571.67l-.48-1.68-20.59 5.89c.17.56.34 1.13.5 1.69 7.27-.48 13.95-3.07 20.57-5.9zM453.8 74.29a95.76 95.76 0 0 0-7.27-7.29c-1.58-1.3-2.71-.31-2.56 1.76.3 4.3 4.55 7.45 9.83 5.53zm-21.87 132.13c-3.36-3.92-6.66-3.63-10.88 1 3.4 3.48 5.55 3.29 10.88-1zm138.52 375.86c.14.57.27 1.13.41 1.7l16.69-4.27-.3-1.18zM190.37 607.77c-20.83 1.33-40.62-2.79-59.9-10.28-4.22-1.64-6.13-3.73-6.48-8.81-.57-8.26-2.62-16.46-4.51-24.57a42.8 42.8 0 0 1 5.73-33.91c2.47-3.92 4.82-7.93 7.43-11.76 1.56-2.29 1.5-4-.1-6.39-4.12-6.2-6.37-13.25-3.32-20.33 1.84-4.27 2.72-7.63.67-12-1.09-2.35-.78-5.48-.68-8.24a39.15 39.15 0 0 0-4.21-19.6c-7.29-14.28-9.13-29.8-9.78-45.51a270.37 270.37 0 0 1 4.25-58.2c.34-2 .39-4 .78-5.92 1.13-5.71-.5-9.88-5.73-13-5.44-3.28-6.28-7.91-3.46-13.72a32.5 32.5 0 0 0 2.57-5.77c.26-1-.61-2.31-1-3.48a13.92 13.92 0 0 0-3.06 1.29 16.05 16.05 0 0 0-2 2.42c-2.86 3.14-6.37 2.54-6.86-1.65s.25-8.39 1-12.52c.91-5.35.56-6-4.66-5.41-2.17.26-3.45-.17-4.2-2.44-6.37-19-20.75-29.44-38.86-35.72-15.93-5.53-32.52-7.35-49.19-8.67-5.17-.41-5.46-.8-4-5.84a31.72 31.72 0 0 1 11.88-17c7.27-5.27 14.63-10.76 22.72-14.47 25.37-11.64 34.82-32.64 36.47-58.74 1-15.09-3-29.43-6.51-43.87-1.87-7.66-3.14-15.35-4.83-22.98-1.47-6.61-.33-12.84 2.19-19 1.14-2.75 3-3.89 6-3.14q14.44 3.64 28.89 7.22c14.9 3.73 29.75 7.69 44.73 11.09 10.82 2.45 19 7.47 24.32 17.79 3.12 6 8.66 10.86 13.35 16 3.73 4.1 8.17 7.59 11.64 11.88 4.25 5.23 5.68 11.29 2.28 17.73a8.54 8.54 0 0 0 .57 9.38c3 4.35 6 8.74 9.2 12.93 4 5.25 8.48 10.18 12.45 15.48 4.42 5.89 7.71 12.35 8.35 19.9.54 6.34 3.73 11.64 7.52 16.41 7.72 9.72 11.91 20.32 11.4 33-.22 5.41 1.18 11.11 2.92 16.32a79.6 79.6 0 0 1 4 26.59c-.16 13.81.14 27.49 4.36 40.93 1.36 4.31.94 9.61-.07 14.15-3.93 17.67-2.21 35.05 1.41 52.46 1.71 8.17 3.26 16.38 4.52 24.63a44.27 44.27 0 0 1 .41 12.26 39.76 39.76 0 0 0 4.28 24.64c3.72 7 3.42 13.47-1.73 19.55s-5.29 12-.28 18.29c2.25 2.82 2.74 5.91.38 9.16-.51.7-.18 2.16 0 3.21.58 2.8 2 5.61 1.85 8.36a38.69 38.69 0 0 0 4.64 20.28c5.23 9.88 6.47 20.22 4.74 31.23-1.31 8.34-2.94 16.78-.81 25.27.63 2.49-1 3-2.85 3.26-11.11 1.83-22.18 4.07-33.35 5.37-15.76 1.88-31.63 3.02-47.47 4.46zm46.43-118.11c.91-3 1-5 4.32-5 2.31 0 5-1.21 3.6-5-.35-.92.67-2.87 1.63-3.68 3-2.56 6.4-4.68 9.43-7.23 1.08-.91 1.53-2.57 2.27-3.89-1.42-.27-2.87-.89-4.25-.75-13.87 1.44-27-.94-37.86-9.85-8.74-7.19-16.39-15.73-24.41-23.78-2.57-2.58-4.8-5.5-7.79-9-2.37 5.23-4.28 9.67-6.38 14a88 88 0 0 1-5.37 10c-3.28 5-7.32 9.47-10.27 14.62-2.1 3.66-4 8-4.07 12.11-.05 4.53 5.53 5.06 8.6 7.35 2.19 1.63 2.21 2.51.16 4.12-2.48 2-4.73 4.2-7.13 6.26s-5.12 4.31-7.7 6.45c-1.47 1.21-3 2.39-4.44 3.59 1.81 1.18 3.56 2.47 5.45 3.49 1 .54 2.37.44 3.45.9 2.4 1 5.27 1.73 7 3.51a6.55 6.55 0 0 0 7.94 1.67c5.59-2.47 10.93-5.55 16.36-8.39v-1.12c-7.83 1-15.58 2.07-23.35 3a21.57 21.57 0 0 1-4.62-.47c.49-1.5.53-3.6 1.57-4.37a100.43 100.43 0 0 1 10.35-6.42 37.28 37.28 0 0 1 22.92-4.95 34.15 34.15 0 0 1 3.8.87l-.08 1c-9.06 2-18.35 3.36-26.67 7.8a8.44 8.44 0 0 0 3.21.19c6.87-.29 13.77-1 20.61-.66 4.8.27 9.59 1.85 14.22 3.37 1.28.42 1.95 2.7 2.9 4.12-1.21.55-2.45 1.63-3.63 1.58a68.42 68.42 0 0 0-38.85 9.38c-4 2.38-8.13 4.54-9.05 9.79s-4.56 8.28-9.2 10.49c-2 .93-4.5 2.28-5.14 4-2.78 7.57-5.07 15.33-7.27 23.1-.87 3.09 1.24 5.46 4 4.87 6.63-1.38 14.34-1.92 19.36-5.75 15.68-12 32.67-14.31 51.17-10.34a93.6 93.6 0 0 1 40.7 19.84c2.77 2.3 3.86 1.38 4.6-1.46a86.87 86.87 0 0 0 2.23-9.24c.88-5.87.75-5.89-5.23-7.48a12.32 12.32 0 0 1-2.65-.8 17 17 0 0 1-2.33-1.84 11.66 11.66 0 0 1 2.19-2.47 51.65 51.65 0 0 1 5.37-2.55 29.77 29.77 0 0 1-3.42-2.68 19.7 19.7 0 0 1-1.91-3c1.2-.12 2.5-.59 3.6-.31 2.47.63 4.83 1.63 8.43 2.89-1.68-3.75-2.57-6.51-4.06-8.9-2.08-3.33-4.08-7-7-9.44-6.63-5.48-13.08-10.89-16.42-19.74 6.29-.58 9.83 5.08 15.34 6.13-.57-2.86-1.13-5.26-1.5-7.69-.44-2.88-.51-5.83-1.12-8.67-1-4.45-2.56-5.3-7-4.46-1.97.43-3.92.57-6.61.89zM190.43 155c2.36 4.57-.18 5.61-3.15 6.41a38 38 0 0 1-21.21 0c-12.48-3.79-21.84-11.12-24.33-24.58-.84-4.55.18-9.47.48-14.2.28-4.55.59-9.11-2.44-13-8.3-10.58-25.73-10.36-33.67.42-4.61 6.26-5.66 13.37-4.29 20.82 1.94 10.55 4.31 21 6.23 31.59 1.63 8.9 3.47 18.24-1.08 26.52-4.85 8.83-7.4 19-15 26.33-1.26 1.22-1.7 3.26-2.7 4.8-2.28 3.49-4.45 7.08-7.06 10.32s-5.83 6.13-8.61 9.32c-.51.58-.2 1.87-.28 2.83.83-.08 1.9.16 2.45-.27a138.76 138.76 0 0 0 12.24-10c4.35-4.25 8.18-9 12.19-13.63 15.54-17.77 22-38.64 21.12-62a7.25 7.25 0 0 0-1.45-4.3c-6.24-6.91-8.45-15.22-8.4-24.2a20 20 0 0 1 1.9-8.4c3.37-6.94 11.64-8 16.56-2.16a24.43 24.43 0 0 1 4.32 8.35c1.19 3.9 1.65 8 2.37 12.08 2.13 11.92 7.89 22.44 12.74 33.32 4.45 10 8 19.61 3.18 31.1-2.46 5.83-5.21 11-9.54 15.16-11 10.57-22.36 20.7-33.43 31.17a33.83 33.83 0 0 0-5.6 7.53c-.49.84.45 2.51.73 3.8a13.66 13.66 0 0 0 3.51-.85c4-2.22 7.83-4.84 11.93-6.87 2.92-1.46 6.31-2 9.28-3.33 7.08-3.3 13.85-7.33 21.09-10.21 8.07-3.21 16.35-6.41 24.84-7.94 13.75-2.46 26.23 4.51 31.43 16.26 2.73 6.19 4.93 13.21 2 19.25-4.33 8.79-20.07 15.58-29 5.42a7.57 7.57 0 0 0-1.89-1.13c-1.79 6.54.52 12.84 6 17 5 3.78 11.3 4.62 16.22.61a47.1 47.1 0 0 0 11.59-13.28c8.92-16.29 11.18-34.68 15-52.54.56-2.61-1.05-4-3.72-3.77a18.78 18.78 0 0 0-4.22 1c-5.87 2-11.63 4.49-17.61 6.19-14.34 4.07-26.92-2.86-30.86-17.25a43.93 43.93 0 0 1-1-13.75c.46-8.75 4.71-13.09 13.32-14.6 7.07-1.24 12 2.73 12 10 0 4.08-.86 8.15-1.24 12.24-.64 7 1.58 10.69 8.6 11 7.32.38 14.73-.87 22-1.39-1.59-3.91-3.49-7.12-4.18-10.57-1.66-8.26-4.19-16.14-9.24-22.88-5.76-7.69-12-15-18-22.49a11.88 11.88 0 0 0-2.12-1.25zM109 293.08l1.25 1c2.77-2.12 5.54-4.22 8.29-6.37 4.89-3.83 9.67-7.81 14.7-11.44a7.18 7.18 0 0 1 5.12-1.12c3.6.81 7 2.48 10.56 3.43a11.66 11.66 0 0 1 8.35 7.85 138.51 138.51 0 0 1 4.9 19.56c.56 3.2 1.62 5.21 4.65 6.07 3.73 1.07 7.47 2 7.78 7 0 .64.94 1.23 1.45 1.84 2.61 3.12 5.16 6.29 7.89 9.31a7 7 0 0 0 3 1.63c6.56 2.1 13.24 3.85 19.69 6.25 9.32 3.46 18.72 7 23.91 16.58.35.66 1.73 1.48 2.17 1.26a43.84 43.84 0 0 0 7.65-4.39c1.92-1.47 3.15-3.57 1.83-6.29-2.38-4.9-6.48-7-11.65-7.67a88.15 88.15 0 0 1-12.54-2.07c-11.26-3.15-19.91-10.8-29.08-17.53-.32-.23-.32-.9-.54-1.57 6.88-2.21 13.73-4.26 18.43-9.88 9.71-11.63 18.54-23.84 23.54-38.38a4.72 4.72 0 0 1 1.42-2.3c4.36-3 5.26-7.47 5.44-12.21.16-4.36 0-8.73 0-13.09-1.8.35-2.55.84-3.05 1.51-4.51 6.07-5.9 13.11-6.5 20.45a35.53 35.53 0 0 1-31.65 32c-10 1-19.57-4.63-24.18-14.13-4.33-8.9-3-18.78 3.41-25.5 5.51-5.77 6.73-5.83 12.46 0 1.38-2.56 3-4.79 3.82-7.29 1.6-5 .66-6.58-4.19-8.54-6.84-2.76-13.8-2.51-20.64-.24-15.17 5-26.95 15-37.32 26.78-.77.88-.75 2.41-1.3 3.55-.61 1.29-1.16 2.87-2.23 3.65-2.77 2-6.09 3.34-8.69 5.53-4.51 3.84-8.15 8.43-8.15 14.76zm96.46 81.35c-.11.26-.15.58-.32.73a22.37 22.37 0 0 1-2.45 2c-6.83 4.5-10 11.86-14.24 18.38-.87 1.35-.72 4.89.28 5.63 2.41 1.78 2.85-1.5 4.19-2.69 3.63-3.21 7.15-6.66 11.2-9.22 3.13-2 4.67-.71 5.31 3a40.51 40.51 0 0 0 1.35 6.2c1.29 3.74 3.54 4.65 7.09 2.95a73.45 73.45 0 0 0 7-3.79c5.62-3.46 8.33-8.41 8.53-15.17.32-11-4.13-19.54-12.3-26.37-10.43-8.72-23-12.87-35.84-16.42-3.41-.94-7-1.86-10-3.59-4.86-2.79-9.06-1.57-10.29 3.92A26.6 26.6 0 0 1 154.6 356c-7.82 5.85-14.09 12.73-16.36 22.54-.6 2.62-2.19 3.47-4.66 2.91-2.09-.48-4.16-1.07-6.24-1.61l-.74 1.08 6.68 5.76c-3.67 5.59-2.64 9.33 3.57 12.64a94.89 94.89 0 0 0 8.92 4.3c1 .39 2.32-.23 3.49-.38l-1.18-.9c0-1.79-.74-4.15.12-5.29 4.22-5.57 7.54-.7 11.43 1.24A113 113 0 0 0 149 385.6c-3.16-3.32-2.94-7.87 1-10 9.87-5.28 17.83-12.8 25.34-20.9a27.43 27.43 0 0 1 2.22-2zM77.61 78.07l-3.15-4.18c-1.52 1.2-4.14 2.21-4.39 3.63-1 6.06-2.38 12.34-1.79 18.36.78 8.12 3 16.13 5 24.11 3.5 14.13 5.8 28.26 2.62 42.83-2.76 12.63-9.3 23.31-16.8 33.49a25.83 25.83 0 0 1-6.93 6.33c-6.39 4-13.2 7.38-19.52 11.48-5.65 3.67-10.92 7.88-16.23 12.07-.82.65-.91 2.24-1.34 3.4 1.17.34 2.38 1 3.52.95a28.05 28.05 0 0 0 6.6-1.29c3.55-1.19 7.25-2.27 10.43-4.17 4.74-2.82 9-6.47 13.61-9.49 5.22-3.4 10.73-6.34 15.95-9.73 6.49-4.21 12.46-9 15.75-16.37 7.77-17.46 8.67-35.3 3.37-53.55a30 30 0 0 1-1.08-4.22c-1.3-9-2.39-18-3.84-27-1.39-8.53-4.61-16.87-1.78-26.65zM111.32 99l-.48-1.11a92.07 92.07 0 0 1-9.4-.07C98 97.44 96 99 94.25 101.6a29.91 29.91 0 0 0-4.64 20.15c1 10.14 3.24 20.16 4.06 30.31.68 8.23 1.39 16.85-.26 24.81-3.7 17.89-17.6 28.38-31.31 38.51-4.22 3.11-8.78 11.26-8 16.88a11.58 11.58 0 0 0 2.52-1c10.85-7.57 21.87-14.93 32.42-22.89a42.27 42.27 0 0 0 13.51-17.9c4.15-10.09 2.93-20.31.75-30.51-2-9.46-4.43-18.83-6.42-28.3-2.63-12.47.83-22.78 11.45-30.33 1.07-.71 2.01-1.57 2.99-2.33zm56.2 35.63c6.23-4.53 9.11-14.35 6.12-19.17-6.42-10.36-13.38-20.31-22.14-28.86a11.22 11.22 0 0 0-3.82-2.72c-4-1.4-8.1-2.46-12.15-3.7-13.77-4.28-27.53-8.61-41.32-12.76C88.14 65.6 82 64 75.81 62.56c-.91-.21-2.08.66-3.14 1 .51.84.81 2.06 1.54 2.45 6.41 3.36 12.7 7 19.39 9.72 13.59 5.48 27.54 10.08 41.07 15.71a44.89 44.89 0 0 1 13.23 9.21c6.94 6.67 11.68 15 15.32 23.9 1.32 3.27 2.78 6.45 4.3 10.04zm34.71 261.47a9.71 9.71 0 0 0-5.5 7.27 23.45 23.45 0 0 0 11 23.86c9.77 5.86 20 5.31 30.28 1.68a4.52 4.52 0 0 0 2.58-2.27c1.52-4.79 3-9.62 4-14.52.53-2.44-.75-3.88-3.51-2.79-.86.34-1.63.92-2.5 1.2-7.25 2.4-14.38 5.39-21.8 7-7.67 1.62-17.53-5.75-15.11-16.88.33-1.26.33-2.5.56-4.59zm-43.06 24.45c-4.58 8.46-12.39 11-20.83 12.63a17.91 17.91 0 0 0-4.44 1.61c-2.47 1.19-3.26 3.09-2.69 5.89 1.31 6.34 6 9.9 11 12.83 1.61 1 5.42 0 7.13-1.41a27.77 27.77 0 0 0 6.41-8.45 34 34 0 0 0 3.42-23.14zm41.19 131.43c-4.68.71-9.4 1.27-14 2.19-2.53.5-5 5.82-3.92 8.24 1.35 3.18 3.95 2 6.14 1.33 6.51-2.1 12.89-3 19.79-1.22 9.59 2.47 19.53 3.72 27.63 10.19a4.83 4.83 0 0 0 2.93 1.06c1 0 2.53-.52 2.87-1.26a3.34 3.34 0 0 0-.79-3c-2.08-1.82-4.48-3.28-6.71-4.94a61.62 61.62 0 0 0-33.94-12.63zm8-229.93c3.34.91 6.23 2.17 9.21 2.44 7.78.7 14.81-2.42 21.81-5.21 1.45-.59 2.67-2.17 3.6-3.56 3.16-4.69 2.13-9.92 1.41-15-.08-.59-2.15-1.57-2.87-1.29-3.8 1.47-7.85 2.74-11.09 5.09-7.21 5.2-14.02 11.04-22.05 17.48zm22.75 115.93c.28.17.16 0 .05 0-1.05 0-2.11.1-3.16.08-9-.19-18.18.55-24.75-7.61-.69-.85-2.19-1.06-3.31-1.57l-.51 1c9.66 9.68 18 21.11 33.1 24.78zm-50.8-39.65 9.81-17c-8.72-.9-6.2-10-11.51-14.24-.43 2.76-.85 5-1.1 7.24-.87 7.79-.85 7.8-8.83 9zm-11.75 188.51.25 1.26 37.45-5.19c-2.82-1.6-6.77-1.06-5.9-6.06.07-.41-2.31-1.87-3.45-1.76a62.8 62.8 0 0 0-11.24 1.91c-6.48 1.87-12.53 4.65-17.11 9.84zm7.81-430.57c-13.55-5.74-22.44-15.78-28.56-28.9-3.12 6.62-.2 16.82 6.05 22.84 6.14 5.89 16.72 8.99 22.51 6.06zm13 41.14c1.72-4 .86-10-1.78-12.45-.67-.63-2.54-1-3-.61-.9.84-2 2.76-1.61 3.47 1.77 3.18 4.02 6.18 6.37 9.59zm-41.93 383.72 7.4-6.21c-.75-.87-1.4-2.33-2.27-2.49-2.53-.45-6.93 2.78-6.91 4.91.01.92.82 1.83 1.78 3.79zm19.15-15c-6.54 1.72-7.67 3.21-6.26 8 6.4-.6 7.51-1.95 6.26-7.95zm11.35-5.34c-5.6 1-7.47 3.93-5.11 8 6.46-2.45 7.02-3.32 5.11-7.95z"/><path d="M345.88 80.47c2.78-1.69 5.37-4 8.38-4.92 4.18-1.34 7.38 1.17 7.81 5.55a19.46 19.46 0 0 1-5.53 16 26.87 26.87 0 0 0-4.1 6.07c-2.25 4.33-4.14 8.86-6.41 13.18a13.78 13.78 0 0 1-4.14 4.33c-1.73-13.83-1.33-27.31 4.08-40.3zM446.73 498.23c1.37-2.44 2.43-4.49 3.66-6.44a1.8 1.8 0 0 1 1.64-.56 2.16 2.16 0 0 1 1 1.49c.58 3.06-2.21 5.81-6.3 5.51zM476.11 431.51c-1.1-4.59 1.43-7.22 6.76-7.06q-3.37 3.55-6.76 7.06zM487.49 412.2c1.68-1.16 3.37-2.32 5.12-3.54 2.12 2.3 1 4.2-.52 5.68-.91.89-2.46 1.14-3.72 1.68-.26-1.32-.51-2.63-.76-3.94zM454.71 472v-8.9c3.98 2.11 4.29 5.95 0 8.9zM457.38 440.88l5.17-4.23 1.15.57c-.24 1.17-.09 2.87-.81 3.42-1.32 1-3.16 1.34-4.78 1.95-.25-.59-.49-1.14-.73-1.71zM439.37 24.28l4.52 4.7c-.65.62-1.7 1.88-1.9 1.76-1.71-1.06-3.28-2.37-4.88-3.6zM425.35 26.3l-8.71-2.25c3.47-2.74 6.5-2.13 8.71 2.25zM463 45.32c-1.27-1.48-2.59-2.92-3.74-4.48-.19-.25.25-1.34.65-1.55a1.85 1.85 0 0 1 1.75.25c1.07 1.38 1.95 2.92 2.9 4.4z"/><ellipse cx="502.49" cy="68.24" rx="3.79" ry="1.05"/><path d="m343.09 61.46-8.4 6.79c.76-5.25 3.55-7.65 8.4-6.79zM314.17 87.05c-.76-4.49 2.34-4.77 5.48-6.35-.44 3.86-2.49 5.12-5.48 6.35zM296.51 101.51l5.28-4.1.78 1c-.78 2.59-2.15 4.47-5.26 4.22zM395.66 510.66c0 5.86-3.56 10.72-7.78 10.72-5.27 0-9.47-4.45-9.53-10.11s3.61-9.32 9-9.28c5.75.01 8.35 2.77 8.31 8.67zM237.65 465.49l8.86 1.68c-2.46 3.82-5.57 3.42-9.12-.31zM172.45 450.39c.23 1.1 1 2.45.57 3.25a13.25 13.25 0 0 1-3.22 3.77c-.26.23-1.3-.41-2-.65a41.16 41.16 0 0 1 1.54-3.82 23.72 23.72 0 0 1 2-2.75zM217.67 460.81a8.72 8.72 0 0 1-7.14-5.49l.93-1.24 7.2 5.37zM196.44 443.24l-4.65-5.47 1.26-1.18 5 5.18z"/></svg>